<svg width="24" height="24" viewBox="0 0 24 24" fill="none" xmlns="http://www.w3.org/2000/svg">
<g clip-path="url(#clip0_1_685)">
<path fill-rule="evenodd" clip-rule="evenodd" d="M18.5544 12.7507C18.5243 9.7123 21.0326 8.25422 21.1446 8.18204C19.7348 6.1198 17.5384 5.83633 16.7557 5.80446C14.8866 5.61576 13.1092 6.90553 12.1596 6.90553C11.2126 6.90553 9.74917 5.83277 8.19941 5.86116C6.16241 5.89127 4.28441 7.04593 3.2343 8.87035C1.11799 12.5421 2.69299 17.9842 4.75571 20.9616C5.76334 22.4197 6.96499 24.0576 8.5431 23.9991C10.0623 23.9393 10.6372 23.0149 12.4749 23.0149C14.3121 23.0149 14.8281 23.9991 16.4364 23.9677C18.0716 23.9375 19.1076 22.4812 20.1086 21.0183C21.2668 19.3263 21.7416 17.6902 21.7704 17.606C21.7341 17.5896 18.5818 16.3822 18.55 12.752L18.5544 12.7507H18.5544ZM15.5337 3.83166C16.3708 2.81605 16.9365 1.40623 16.7819 -0.000915527C15.5758 0.048247 14.1133 0.802972 13.2474 1.81727C12.4701 2.71772 11.791 4.15277 11.9727 5.53112C13.3196 5.63612 14.6948 4.84682 15.5324 3.83342L15.5337 3.83166Z" fill="black"/>
</g>
<defs>
<clipPath id="clip0_1_685">
<rect width="24" height="24" fill="white"/>
</clipPath>
</defs>
</svg>
