<svg xmlns="http://www.w3.org/2000/svg" width="32.346" height="29" viewBox="0 0 32.346 29">
  <g id="ic-hotels" transform="translate(-24 -48)">
    <g id="Group_55163" data-name="Group 55163" transform="translate(24 48)">
      <path id="Path_24191" data-name="Path 24191" d="M59.44,152.923l-.094.558H56v-7.808l.558-.279A1.394,1.394,0,0,1,57.952,144h.721a1.394,1.394,0,0,1,1.384,1.221l.767,6.135a1.394,1.394,0,0,1-1.383,1.567Z" transform="translate(-53.769 -137.308)" fill="#a1daf8"/>
      <path id="Path_24192" data-name="Path 24192" d="M28.462,408.558,27.9,408H24.558l-.558.558V411.9h1.336A2.788,2.788,0,0,0,27.982,410Z" transform="translate(-24 -382.904)" fill="#003b64"/>
      <path id="Path_24193" data-name="Path 24193" d="M424,408.558l.558-.558H427.9l.558.558V411.9h-1.336A2.788,2.788,0,0,1,424.48,410Z" transform="translate(-396.115 -382.904)" fill="#003b64"/>
      <path id="Path_24194" data-name="Path 24194" d="M83.048,277.577l-.279.558H57.115L56,277.577V272H83.048a1.394,1.394,0,0,1,1.394,1.394v2.788A1.394,1.394,0,0,1,83.048,277.577Z" transform="translate(-53.769 -256.385)" fill="#ffcc23"/>
      <g id="Group_55162" data-name="Group 55162" transform="translate(11.712)">
        <path id="Path_24195" data-name="Path 24195" d="M291.7,166.311l-.711,1.3-1.3.711,1.3.711.711,1.3.711-1.3,1.3-.711-1.3-.711Z" transform="translate(-282.879 -158.063)" fill="#ffcc23"/>
        <path id="Path_24196" data-name="Path 24196" d="M194.011,80l-.711,1.3-1.3.711,1.3.711.711,1.3.711-1.3,1.3-.711-1.3-.711Z" transform="translate(-192 -77.769)" fill="#ffcc23"/>
        <path id="Path_24197" data-name="Path 24197" d="M344.322,48l-.711,1.3-1.3.711,1.3.711.711,1.3.711-1.3,1.3-.711-1.3-.711Z" transform="translate(-331.833 -48)" fill="#ffcc23"/>
      </g>
      <path id="Path_24198" data-name="Path 24198" d="M54.952,136.173H26.788V121.394A1.394,1.394,0,0,0,25.394,120H24v20.635H56.346v-3.067A1.394,1.394,0,0,0,54.952,136.173Z" transform="translate(-24 -114.981)" fill="#009fe3"/>
      <path id="Path_24199" data-name="Path 24199" d="M208,256h14.361a.7.7,0,0,1,.7.7v3.764H208Z" transform="translate(-195.173 -241.5)" fill="#a1daf8"/>
      <path id="Path_24200" data-name="Path 24200" d="M160,256h3.346v4.462H160Z" transform="translate(-150.519 -241.5)" fill="#e4f7fb"/>
    </g>
  </g>
</svg>
