<svg xmlns="http://www.w3.org/2000/svg" width="20.238" height="20.936" viewBox="0 0 20.238 20.936">
  <g id="Group_55308" data-name="Group 55308" transform="translate(-24 -16)">
    <path id="Path_24486" data-name="Path 24486" d="M25.047,27.166H26.9a1.039,1.039,0,0,0,.279,1.121l2.865,2.626h0l.007.007,4.527,3.924h-.111a.349.349,0,0,0-.349.349v1.4a.349.349,0,0,0,.349.349h4.187A.349.349,0,0,0,39,36.587v-1.4a.349.349,0,0,0-.349-.349v-.553l.187-.187a1.733,1.733,0,0,0,.511-1.234V30.731l1.265-2.783a1.042,1.042,0,0,0,.034-.782h2.54a1.048,1.048,0,0,0,1.047-1.047v-.7a.349.349,0,0,0-.349-.349h-1.4v-.349A7.336,7.336,0,0,0,35.166,17.4v-.7h.349a.349.349,0,0,0,0-.7H32.723a.349.349,0,1,0,0,.7h.349v.7a7.336,7.336,0,0,0-7.328,7.328v.349h-1.4a.349.349,0,0,0-.349.349v.7A1.048,1.048,0,0,0,25.047,27.166Zm2.516.222a.341.341,0,0,1,.325-.222h.2a.35.35,0,0,1,.318.2l.262.577h0l.588,1.293-1.6-1.469a.341.341,0,0,1-.089-.384Zm10.744,8.85H34.817v-.7h3.489Zm1.652-8.912a.343.343,0,0,1,.024.333l-1.3,2.852a.349.349,0,0,0-.031.144v2.213a1.04,1.04,0,0,1-.307.74l-.289.289a.349.349,0,0,0-.1.247v.7H35.645l-5.078-4.4L29.3,27.659a.349.349,0,0,1,.318-.493h.23a.347.347,0,0,1,.312.193l1.2,2.406a.349.349,0,0,0,.182.168l3.489,1.4a.349.349,0,0,0,.214.015l1.4-.349a.349.349,0,0,0,.222-.171l1.9-3.475a.349.349,0,0,1,.306-.182h.6a.343.343,0,0,1,.293.16Zm-9.113-.16h7.222l-1.739,3.188-1.138.284-3.261-1.3ZM33.77,16.7h.7v.7h-.7Zm-7.328,8.025a6.637,6.637,0,0,1,6.63-6.63h2.094a6.637,6.637,0,0,1,6.63,6.63v.349H26.443ZM24.7,25.77H43.54v.349a.349.349,0,0,1-.349.349H25.047a.349.349,0,0,1-.349-.349Z" fill="#252c31"/>
  </g>
</svg>
