<svg xmlns="http://www.w3.org/2000/svg" width="20" height="20" viewBox="0 0 20 20">
  <g id="vuesax_outline_calendar-2" data-name="vuesax/outline/calendar-2" transform="translate(-172 -252)">
    <g id="calendar-2" transform="translate(172 252)">
      <path id="Vector" d="M.625,3.75A.63.63,0,0,1,0,3.125V.625A.63.63,0,0,1,.625,0,.63.63,0,0,1,1.25.625v2.5A.63.63,0,0,1,.625,3.75Z" transform="translate(6.042 1.042)" fill="#b1c9d3"/>
      <path id="Vector-2" data-name="Vector" d="M.625,3.75A.63.63,0,0,1,0,3.125V.625A.63.63,0,0,1,.625,0,.63.63,0,0,1,1.25.625v2.5A.63.63,0,0,1,.625,3.75Z" transform="translate(12.708 1.042)" fill="#b1c9d3"/>
      <path id="Vector-3" data-name="Vector" d="M14.792,1.25H.625A.63.63,0,0,1,0,.625.63.63,0,0,1,.625,0H14.792a.63.63,0,0,1,.625.625A.63.63,0,0,1,14.792,1.25Z" transform="translate(2.292 6.95)" fill="#b1c9d3"/>
      <path id="Vector-4" data-name="Vector" d="M11.458,16.667H4.792C1.75,16.667,0,14.917,0,11.875V4.792C0,1.75,1.75,0,4.792,0h6.667C14.5,0,16.25,1.75,16.25,4.792v7.083C16.25,14.917,14.5,16.667,11.458,16.667ZM4.792,1.25C2.408,1.25,1.25,2.408,1.25,4.792v7.083c0,2.383,1.158,3.542,3.542,3.542h6.667c2.383,0,3.542-1.158,3.542-3.542V4.792c0-2.383-1.158-3.542-3.542-3.542Z" transform="translate(1.875 2.292)" fill="#b1c9d3"/>
      <path id="Vector-5" data-name="Vector" d="M.833,1.667A.83.83,0,0,1,.517,1.6a.962.962,0,0,1-.275-.175A.962.962,0,0,1,.067,1.15.83.83,0,0,1,0,.833.876.876,0,0,1,.242.242.962.962,0,0,1,.517.067.8.8,0,0,1,1,.017a.53.53,0,0,1,.15.05A.631.631,0,0,1,1.3.142l.125.1a1.313,1.313,0,0,1,.1.125A.631.631,0,0,1,1.6.517a.53.53,0,0,1,.05.15,1.129,1.129,0,0,1,.017.167.876.876,0,0,1-.242.592A.876.876,0,0,1,.833,1.667Z" transform="translate(6.25 10.417)" fill="#b1c9d3"/>
      <path id="Vector-6" data-name="Vector" d="M.833,1.666a.876.876,0,0,1-.592-.242L.142,1.3a.631.631,0,0,1-.075-.15A.53.53,0,0,1,.017,1,1.129,1.129,0,0,1,0,.832.83.83,0,0,1,.067.516.962.962,0,0,1,.242.241.835.835,0,0,1,1.15.066a.86.86,0,0,1,.275.175.876.876,0,0,1,.242.592A1.129,1.129,0,0,1,1.65,1a.53.53,0,0,1-.05.15.631.631,0,0,1-.075.15l-.1.125A.86.86,0,0,1,1.15,1.6.83.83,0,0,1,.833,1.666Z" transform="translate(9.167 10.418)" fill="#b1c9d3"/>
      <path id="Vector-7" data-name="Vector" d="M.833,1.666A.83.83,0,0,1,.517,1.6a.962.962,0,0,1-.275-.175.86.86,0,0,1-.175-.275A.83.83,0,0,1,0,.832.876.876,0,0,1,.242.241.962.962,0,0,1,.517.066a.832.832,0,0,1,.908.175,1.313,1.313,0,0,1,.1.125A.631.631,0,0,1,1.6.516a.5.5,0,0,1,.05.158,1.021,1.021,0,0,1,.017.158.876.876,0,0,1-.242.592A.876.876,0,0,1,.833,1.666Z" transform="translate(6.25 13.334)" fill="#b1c9d3"/>
      <path id="Vector-8" data-name="Vector" d="M0,0H20V20H0Z" fill="none" opacity="0"/>
    </g>
  </g>
</svg>
