<svg width="28" height="28" viewBox="0 0 28 28" fill="none" xmlns="http://www.w3.org/2000/svg">
<path d="M19.7037 26.5133H8.29631C5.82858 26.5133 3.81482 24.4995 3.81482 22.0318V5.96831C3.81482 3.50058 5.82858 1.48682 8.29631 1.48682H19.7037C22.1714 1.48682 24.1852 3.50058 24.1852 5.96831V22.0318C24.1852 24.4995 22.1714 26.5133 19.7037 26.5133ZM8.29631 3.23285C6.79472 3.23285 5.56085 4.45508 5.56085 5.96831V22.0318C5.56085 23.5334 6.78308 24.7673 8.29631 24.7673H19.7037C21.2053 24.7673 22.4392 23.545 22.4392 22.0318V5.96831C22.4392 4.46672 21.2169 3.23285 19.7037 3.23285H8.29631Z" fill="#009FE3"/>
<path d="M21.5662 16.0371H6.43387C4.99048 16.0371 3.81482 14.8614 3.81482 13.418V11.09C3.81482 9.64661 4.99048 8.47095 6.43387 8.47095H21.5662C23.0095 8.47095 24.1852 9.64661 24.1852 11.09V13.418C24.1852 14.8614 23.0095 16.0371 21.5662 16.0371ZM6.43387 10.217C5.95662 10.217 5.56085 10.6127 5.56085 11.09V13.418C5.56085 13.8953 5.95662 14.2911 6.43387 14.2911H21.5662C22.0434 14.2911 22.4392 13.8953 22.4392 13.418V11.09C22.4392 10.6127 22.0434 10.217 21.5662 10.217H6.43387Z" fill="#009FE3"/>
<path d="M9.34394 21.8572C8.95982 21.8572 8.58732 21.7059 8.3196 21.4265C8.24976 21.3683 8.19157 21.2869 8.13337 21.2054C8.08681 21.1355 8.04025 21.0424 8.00533 20.9609C7.95876 20.8678 7.93548 20.7747 7.9122 20.6815C7.90056 20.5884 7.88892 20.4953 7.88892 20.4022C7.88892 20.3091 7.90056 20.216 7.9122 20.1228C7.93548 20.0297 7.95876 19.9366 8.00533 19.8434C8.04025 19.762 8.08681 19.6689 8.13337 19.599C8.19157 19.5175 8.24976 19.436 8.3196 19.3778C8.85505 18.8308 9.8212 18.8308 10.3683 19.3778C10.4381 19.436 10.4963 19.5175 10.5545 19.599C10.6011 19.6689 10.6476 19.762 10.6826 19.8434C10.7291 19.9366 10.7524 20.0297 10.7757 20.1228C10.7873 20.216 10.799 20.3091 10.799 20.4022C10.799 20.4953 10.7873 20.5884 10.7757 20.6815C10.7524 20.7747 10.7291 20.8678 10.6826 20.9609C10.6476 21.0424 10.6011 21.1355 10.5545 21.2054C10.4963 21.2869 10.4381 21.3683 10.3683 21.4265C10.1006 21.7059 9.72807 21.8572 9.34394 21.8572Z" fill="#FFCC23"/>
<path d="M18.6561 21.8572C18.2719 21.8572 17.8995 21.7059 17.6317 21.4265C17.3524 21.1588 17.201 20.7863 17.201 20.4022C17.201 20.0181 17.3524 19.6456 17.6317 19.3778C18.1672 18.8308 19.145 18.8308 19.6804 19.3778C19.9598 19.6456 20.1111 20.0181 20.1111 20.4022C20.1111 20.7863 19.9598 21.1588 19.6804 21.4265C19.4127 21.7059 19.0402 21.8572 18.6561 21.8572Z" fill="#FFCC23"/>
<path d="M16.91 6.72479H11.0899C10.6127 6.72479 10.2169 6.32903 10.2169 5.85178C10.2169 5.37453 10.6127 4.97876 11.0899 4.97876H16.91C17.3873 4.97876 17.7831 5.37453 17.7831 5.85178C17.7831 6.32903 17.3873 6.72479 16.91 6.72479Z" fill="#FFCC23"/>
</svg>
