<svg xmlns="http://www.w3.org/2000/svg" width="33.169" height="33.172" viewBox="0 0 33.169 33.172">
  <g id="Group_55263" data-name="Group 55263" transform="translate(-1 -0.995)">
    <path id="Path_24448" data-name="Path 24448" d="M10,55.61h1.07v3.954H10Z" transform="translate(-4.185 -25.397)" fill="#895737"/>
    <path id="Path_24449" data-name="Path 24449" d="M34.875,31,26,36.821V47.585h6.955V44.856H36.7v2.728h6.955V36.751Z" transform="translate(-11.625 -13.953)" fill="#009fe3"/>
    <path id="Path_24450" data-name="Path 24450" d="M34.917,31,26.09,36.885H43.745Z" transform="translate(-11.667 -13.953)" fill="#a1daf8"/>
    <path id="Path_24451" data-name="Path 24451" d="M43.69,38.07H30.021L30.01,37H43.679Z" transform="translate(-13.49 -16.743)" fill="#003b64"/>
    <path id="Path_24452" data-name="Path 24452" d="M53,30l-.005,2.525L56.2,34.6l.005-4.6Z" transform="translate(-24.176 -13.488)" fill="#003b64"/>
    <path id="Path_24453" data-name="Path 24453" d="M34,46h2.14v2.14H34Z" transform="translate(-15.345 -20.928)" fill="#a1daf8"/>
    <path id="Path_24454" data-name="Path 24454" d="M47,46h2.14v2.14H47Z" transform="translate(-21.39 -20.928)" fill="#a1daf8"/>
    <path id="Path_24455" data-name="Path 24455" d="M43.981,35.035,33.03,28,22.1,35.062l.867,1.354,10.1-6.484,10.052,6.452Z" transform="translate(-9.812 -12.558)" fill="#ffcc23"/>
    <path id="Path_24456" data-name="Path 24456" d="M19.243,11.025h-.15c-1.321,0-2.5,1.043-3.654,2.215-1.755-.535-2.921-3.21-5.061-3.21H9.79c-3.108-.016-5.275,6.4-8.79,6.4H25.61C23.534,16.434,21.33,11.025,19.243,11.025Z" transform="translate(0 -4.202)" fill="#27a570"/>
    <path id="Path_24457" data-name="Path 24457" d="M27.8,11.89h-.15c-3.007,0-5.254,5.409-8.25,5.409H34.166C32.09,17.3,29.886,11.89,27.8,11.89Z" transform="translate(-8.556 -5.066)" fill="#1fb776"/>
    <path id="Path_24458" data-name="Path 24458" d="M19.353,2.886a.915.915,0,0,1-.754-.5.813.813,0,0,0-.209-.246,1.07,1.07,0,0,0-.867.053L17.17,1.185a2.017,2.017,0,0,1,1.808.053,1.6,1.6,0,0,1,.374.353,1.6,1.6,0,0,1,.374-.353,2,2,0,0,1,1.808-.053L21.182,2.19a1.07,1.07,0,0,0-.867-.053.813.813,0,0,0-.209.246.915.915,0,0,1-.754.5Z" transform="translate(-7.519)" fill="#a1daf8"/>
    <path id="Path_24459" data-name="Path 24459" d="M26.876,6.6a.915.915,0,0,1-.754-.5.754.754,0,0,0-.182-.246,1.07,1.07,0,0,0-.867.053L24.72,4.895a2,2,0,0,1,1.808.053A1.6,1.6,0,0,1,26.9,5.3a1.6,1.6,0,0,1,.374-.353,2,2,0,0,1,1.808-.053L28.732,5.9a1.07,1.07,0,0,0-.867-.053.754.754,0,0,0-.209.246A.915.915,0,0,1,26.876,6.6Z" transform="translate(-11.03 -1.725)" fill="#a1daf8"/>
    <path id="Path_24460" data-name="Path 24460" d="M55.006,21.865l-.76-.76,1.23-1.225L54.45,18.858a.8.8,0,0,1,0-1.166l1.4-1.4.76.76-1.23,1.225L56.408,19.3a.792.792,0,0,1,0,1.161Z" transform="translate(-24.737 -7.113)" fill="#a1daf8"/>
    <path id="Path_24461" data-name="Path 24461" d="M10.5,39.9H8.645l2.418,2.616H8.645L11.63,46.7H2l2.926-4.184H2.567L5.023,39.9H3.134l3.7-3.9Z" transform="translate(-0.465 -16.278)" fill="#1fb776"/>
  </g>
</svg>
