<svg xmlns="http://www.w3.org/2000/svg" width="62.379" height="62.379" viewBox="0 0 62.379 62.379">
  <g id="vuesax_outline_tick-square" data-name="vuesax/outline/tick-square" transform="translate(-748 -252)">
    <g id="tick-square" transform="translate(748 252)">
      <path id="Vector" d="M35.738,55.881H20.143C6.03,55.881,0,49.851,0,35.738V20.143C0,6.03,6.03,0,20.143,0H35.738C49.851,0,55.881,6.03,55.881,20.143V35.738C55.881,49.851,49.851,55.881,35.738,55.881ZM20.143,3.9C8.161,3.9,3.9,8.161,3.9,20.143V35.738c0,11.982,4.263,16.244,16.244,16.244H35.738c11.982,0,16.244-4.263,16.244-16.244V20.143C51.982,8.161,47.72,3.9,35.738,3.9Z" transform="translate(3.249 3.249)" fill="#14ce7f"/>
      <path id="Vector-2" data-name="Vector" d="M9.3,18.629a1.947,1.947,0,0,1-1.378-.572L.565,10.7A1.948,1.948,0,0,1,3.32,7.947L9.3,13.925,22.658.565A1.948,1.948,0,1,1,25.413,3.32L10.676,18.057A1.947,1.947,0,0,1,9.3,18.629Z" transform="translate(18.2 21.865)" fill="#14ce7f"/>
      <path id="Vector-3" data-name="Vector" d="M0,0H62.379V62.379H0Z" fill="none" opacity="0"/>
    </g>
  </g>
</svg>
