<svg xmlns="http://www.w3.org/2000/svg" width="43.007" height="43.007" viewBox="0 0 43.007 43.007">
  <g id="ic-entertainment" transform="translate(-3 -3)">
    <g id="Flat" transform="translate(3 3)">
      <g id="Color_copy" data-name="Color copy">
        <path id="Path_24241" data-name="Path 24241" d="M46.741,14.707A.741.741,0,0,1,46,13.966V11.741a.741.741,0,1,1,1.483,0v2.224A.741.741,0,0,1,46.741,14.707Z" transform="translate(-14.116 -5.068)" fill="#ef5350"/>
        <path id="Path_24242" data-name="Path 24242" d="M46.741,44.8A.742.742,0,0,1,46,44.054V27.741a.741.741,0,0,1,1.483,0V44.054A.742.742,0,0,1,46.741,44.8Z" transform="translate(-14.116 -9.204)" fill="#ef5350"/>
        <path id="Path_24243" data-name="Path 24243" d="M33,24.381a10.381,10.381,0,1,1,20.762,0Z" transform="translate(-10.755 -5.844)" fill="#18be77"/>
        <path id="Path_24244" data-name="Path 24244" d="M53.762,25.162H33a10.275,10.275,0,0,1,1.083-4.612A12.333,12.333,0,0,0,40.415,22.2c4.582,0,8.409-2.21,9.395-5.176a10.318,10.318,0,0,1,3.952,8.142Z" transform="translate(-10.755 -6.624)" fill="#14ce7f"/>
        <path id="Path_24245" data-name="Path 24245" d="M41,24.381C41,18.648,42.992,14,45.449,14S49.9,18.648,49.9,24.381Z" transform="translate(-12.823 -5.844)" fill="#fcea42"/>
        <path id="Path_24246" data-name="Path 24246" d="M49.9,26.268H41a23.232,23.232,0,0,1,.193-3.025c.423.037.853.059,1.29.059a11.981,11.981,0,0,0,6.874-2,21.884,21.884,0,0,1,.541,4.968Z" transform="translate(-12.823 -7.731)" fill="#fdc741"/>
        <path id="Path_24247" data-name="Path 24247" d="M43.469,40.888l-1.439-.36.741-2.966A.742.742,0,0,1,43.491,37h8.05v1.483H44.07Z" transform="translate(-13.089 -11.789)" fill="#003b64"/>
        <path id="Path_24248" data-name="Path 24248" d="M50.537,34,46.83,39.19H35.707L32,47.347h3.707l2.224-5.19h8.9v4.449H49.8V40.673l2.966-5.19Z" transform="translate(-10.497 -11.014)" fill="#a1daf8"/>
        <path id="Path_24249" data-name="Path 24249" d="M52.762,35.677,49.8,40.867V46.8H46.83V42.35h-8.9l-2.224,5.19H32l1.364-3a2.861,2.861,0,0,0,2.3-1.824,2.862,2.862,0,0,1,2.669-1.854h8.216A2.841,2.841,0,0,0,49.1,39.288l2.269-4.538Z" transform="translate(-10.497 -11.207)" fill="#009fe3"/>
        <path id="Path_24250" data-name="Path 24250" d="M32.577,49.313A19.972,19.972,0,0,1,21.153,48.4l-1.509-.587a19.971,19.971,0,0,0-12.726-.589L3,48.342v8.9H46.007V50.566l-4.4-1.1a19.973,19.973,0,0,0-9.028-.153Z" transform="translate(-3 -14.233)" fill="#efad1b"/>
        <path id="Path_24251" data-name="Path 24251" d="M35.826,49.83H32.577a19.906,19.906,0,0,1-5,.42,4.634,4.634,0,0,0-2.015.348l-.148.065a4.307,4.307,0,0,1-2.976.184q-.65-.2-1.286-.445l-1.509-.587a19.971,19.971,0,0,0-12.729-.593L3,50.342v7.415H46.007V51.084A50.612,50.612,0,0,0,35.826,49.83Z" transform="translate(-3 -14.75)" fill="#d8950f"/>
        <path id="Path_24252" data-name="Path 24252" d="M21,57.776l5.038-3.358a35.067,35.067,0,0,1,23.124-5.7l1.5.158v8.9Z" transform="translate(-7.653 -14.769)" fill="#fdc741"/>
        <path id="Path_24253" data-name="Path 24253" d="M44.846,49.438a9.029,9.029,0,0,1-2.824.721c-5.742.471-10.206,2.442-15.209,5.778L24,57.812H51.435v-8.9l-1.5-.158q-.264-.028-.528-.051a9.4,9.4,0,0,0-4.563.733Z" transform="translate(-8.429 -14.805)" fill="#efad1b"/>
        <path id="Path_24254" data-name="Path 24254" d="M19.521,45.047l-7.3-1.287-.05-9.565a17.8,17.8,0,0,1,4.725-12.169l2.047-2.216a1.483,1.483,0,0,1,2.457.433l1.166,2.783a17.8,17.8,0,0,1,.277,13.05Z" transform="translate(-5.37 -7.222)" fill="#ef5350"/>
        <path id="Path_24255" data-name="Path 24255" d="M22.85,36.082l-3.322,8.965-7.3-1.29-.022-3.722a8.853,8.853,0,0,0,6.755-5.65l.741-2.009a17.813,17.813,0,0,0-.222-12.932,1.483,1.483,0,0,1,1.92.8l1.172,2.781a17.809,17.809,0,0,1,.274,13.058Z" transform="translate(-5.381 -7.223)" fill="#e53935"/>
        <path id="Path_24256" data-name="Path 24256" d="M21.737,44.767l-1.192,3.215-3.769-3.006-4.57,1.536-.021-3.429,5.234-1.757Z" transform="translate(-5.374 -12.907)" fill="#52b788"/>
        <path id="Path_24257" data-name="Path 24257" d="M21.746,44.949,20.552,48.16l-3.767-3L12.21,46.691v-.786a8.873,8.873,0,0,0,5.858-3.885Z" transform="translate(-5.381 -13.087)" fill="#40916c"/>
        <path id="Path_24258" data-name="Path 24258" d="M22.067,19.68,17.84,43.637l-1.49-.1L20.606,19.42A1.507,1.507,0,0,1,22.067,19.68Z" transform="translate(-6.451 -7.222)" fill="#ade8f4"/>
        <path id="Path_24259" data-name="Path 24259" d="M19.168,41.95,17.84,49.484l-1.49-.1.942-5.324a8.79,8.79,0,0,0,1.876-2.106Z" transform="translate(-6.451 -13.069)" fill="#48cae4"/>
        <path id="Path_24260" data-name="Path 24260" d="M23.543,19.68,23.009,22.7a16.689,16.689,0,0,0-.949-3.166l.022-.111A1.507,1.507,0,0,1,23.543,19.68Z" transform="translate(-7.927 -7.222)" fill="#48cae4"/>
        <path id="Path_24261" data-name="Path 24261" d="M32.577,54.313A19.972,19.972,0,0,1,21.153,53.4l-1.509-.587a19.971,19.971,0,0,0-12.726-.589L3,53.342v5.19H46.007V55.566l-4.4-1.1a19.973,19.973,0,0,0-9.028-.153Z" transform="translate(-3 -15.525)" fill="#fcea42"/>
        <path id="Path_24262" data-name="Path 24262" d="M46.007,56.341v2.966H3V56.341l3.923-1.12a19.9,19.9,0,0,1,12.724.593l1.505.586a19.966,19.966,0,0,0,11.426.912c.326-.074.66-.133.994-.185a6.119,6.119,0,0,0,2.276-.851A7.33,7.33,0,0,1,41.427,55.2l.175.043Z" transform="translate(-3 -16.3)" fill="#fdc741"/>
        <path id="Path_24263" data-name="Path 24263" d="M8.932,3a1.757,1.757,0,0,0,2.966.795,1.756,1.756,0,0,0,2.171,2.171,1.757,1.757,0,0,0,.795,2.966,1.757,1.757,0,0,0-.795,2.966A1.756,1.756,0,0,0,11.9,14.069a1.757,1.757,0,0,0-2.966.795,1.757,1.757,0,0,0-2.966-.795A1.756,1.756,0,0,0,3.795,11.9,1.757,1.757,0,0,0,3,8.932a1.757,1.757,0,0,0,.795-2.966A1.756,1.756,0,0,0,5.966,3.795,1.757,1.757,0,0,0,8.932,3Z" transform="translate(-3 -3)" fill="#ffcc23"/>
        <path id="Path_24264" data-name="Path 24264" d="M9.744,13.347a3.249,3.249,0,0,0-1.711-.485H7.943a3.257,3.257,0,0,0-1.321-1.317,3.226,3.226,0,0,0-.483-1.8,3.226,3.226,0,0,0,.483-1.8A3.263,3.263,0,0,0,7.943,6.624h.089a3.249,3.249,0,0,0,1.711-.483,3.249,3.249,0,0,0,1.711.485h.089a3.257,3.257,0,0,0,1.321,1.317,3.226,3.226,0,0,0,.483,1.8,3.226,3.226,0,0,0-.483,1.8,3.263,3.263,0,0,0-1.321,1.318h-.089a3.249,3.249,0,0,0-1.711.483Z" transform="translate(-3.812 -3.812)" fill="#fdc741"/>
        <circle id="Ellipse_33" data-name="Ellipse 33" cx="2.5" cy="2.5" r="2.5" transform="translate(3.432 3.432)" fill="#ef5350"/>
        <g id="Group_55174" data-name="Group 55174" transform="translate(0 2.224)">
          <path id="Path_24265" data-name="Path 24265" d="M23.707,15.224a.724.724,0,0,1-.181-.022l-2.966-.741a.741.741,0,1,1,.36-1.439l2.966.742a.741.741,0,0,1-.179,1.461Z" transform="translate(-7.395 -7.809)" fill="#ffcc23"/>
          <path id="Path_24266" data-name="Path 24266" d="M20.742,8.224a.741.741,0,0,1-.179-1.461l2.966-.741a.741.741,0,1,1,.36,1.439L20.923,8.2a.724.724,0,0,1-.181.022Z" transform="translate(-7.395 -6)" fill="#ffcc23"/>
          <path id="Path_24267" data-name="Path 24267" d="M10.741,26.19A.741.741,0,0,1,10,25.449V21.741a.741.741,0,1,1,1.483,0v3.707A.741.741,0,0,1,10.741,26.19Z" transform="translate(-4.81 -9.877)" fill="#ffcc23"/>
          <path id="Path_24268" data-name="Path 24268" d="M3.742,24.449a.741.741,0,0,1-.663-1.073L4.562,20.41a.742.742,0,1,1,1.327.663L4.406,24.039A.741.741,0,0,1,3.742,24.449Z" transform="translate(-3.001 -9.619)" fill="#ffcc23"/>
          <path id="Path_24269" data-name="Path 24269" d="M17.223,24.449a.742.742,0,0,1-.667-.41l-1.483-2.966A.742.742,0,1,1,16.4,20.41l1.483,2.966a.741.741,0,0,1-.66,1.073Z" transform="translate(-6.101 -9.619)" fill="#ffcc23"/>
          <path id="Path_24270" data-name="Path 24270" d="M22.449,20.707a.737.737,0,0,1-.381-.106l-3.707-2.224a.741.741,0,1,1,.764-1.271l3.707,2.225a.741.741,0,0,1-.383,1.377Z" transform="translate(-6.878 -8.843)" fill="#ffcc23"/>
        </g>
      </g>
    </g>
  </g>
</svg>
