<svg xmlns="http://www.w3.org/2000/svg" width="13.457" height="24.89" viewBox="0 0 13.457 24.89">
  <g id="Group_22440" data-name="Group 22440" transform="translate(0)">
    <g id="_x30_1._Facebook" transform="translate(0 0)">
      <path id="Icon_11_" d="M32.127,24.052H29.035c-.487,0-.66-.175-.66-.665q0-1.887,0-3.774c0-.483.184-.668.664-.668h3.088c0-.086,0-1.9,0-2.739a6.829,6.829,0,0,1,.849-3.5,5.158,5.158,0,0,1,2.778-2.308A6.868,6.868,0,0,1,38.136,10q1.53,0,3.06,0c.438,0,.633.194.634.636q0,1.775,0,3.549c0,.446-.187.625-.635.63-.836.009-1.673,0-2.508.037A1.136,1.136,0,0,0,37.4,16.139c-.02.923-.008,1.848-.008,2.8h3.6c.51,0,.684.175.684.688q0,1.877,0,3.753c0,.5-.164.666-.677.666H37.381V34.177c0,.54-.17.712-.7.712h-3.9c-.471,0-.654-.183-.654-.654,0-3.3,0-10.068,0-10.184Z" transform="translate(-28.374 -9.999)" fill="#3d6ad6"/>
    </g>
  </g>
</svg>
