<svg xmlns="http://www.w3.org/2000/svg" width="20" height="20" viewBox="0 0 20 20">
  <g id="vuesax_outline_like" data-name="vuesax/outline/like" transform="translate(-236 -316)">
    <g id="like" transform="translate(236 316)">
      <path id="Vector" d="M8.125,17.908a2.291,2.291,0,0,1-1.617-.667L5.083,15.833a1.88,1.88,0,0,0-1.325-.542H3.125A3.116,3.116,0,0,1,0,12.192V3.1A3.116,3.116,0,0,1,3.125,0h10A3.116,3.116,0,0,1,16.25,3.1v9.092a3.116,3.116,0,0,1-3.125,3.1h-.633a1.916,1.916,0,0,0-1.325.542L9.742,17.242A2.291,2.291,0,0,1,8.125,17.908Zm-5-16.667A1.867,1.867,0,0,0,1.25,3.092v9.092a1.862,1.862,0,0,0,1.875,1.85h.633a3.164,3.164,0,0,1,2.208.908L7.392,16.35a1.057,1.057,0,0,0,1.475,0l1.425-1.408a3.164,3.164,0,0,1,2.208-.908h.625A1.867,1.867,0,0,0,15,12.183V3.092a1.862,1.862,0,0,0-1.875-1.85Z" transform="translate(1.875 1.05)" fill="#b1c9d3"/>
      <path id="Vector-2" data-name="Vector" d="M4.367,7.917a1.473,1.473,0,0,1-.433-.067C2.833,7.475,0,5.817,0,2.717A2.707,2.707,0,0,1,4.375.575,2.707,2.707,0,0,1,8.75,2.717c0,3.1-2.842,4.758-3.933,5.133A1.681,1.681,0,0,1,4.367,7.917ZM2.7,1.25A1.467,1.467,0,0,0,1.242,2.717c0,2.358,2.292,3.675,3.092,3.95H4.4c.808-.283,3.083-1.6,3.083-3.942a1.458,1.458,0,0,0-2.625-.883.645.645,0,0,1-1,0A1.407,1.407,0,0,0,2.7,1.25Z" transform="translate(5.633 5.208)" fill="#b1c9d3"/>
      <path id="Vector-3" data-name="Vector" d="M0,0H20V20H0Z" transform="translate(20 20) rotate(180)" fill="none" opacity="0"/>
    </g>
  </g>
</svg>
