<svg xmlns="http://www.w3.org/2000/svg" width="21.789" height="21.789" viewBox="0 0 21.789 21.789">
  <g id="vuesax_outline_heart" data-name="vuesax/outline/heart" transform="translate(-236 -188)">
    <g id="heart" transform="translate(236 188)">
      <path id="Vector" d="M9.76,17.522a2.35,2.35,0,0,1-.781-.118C5.511,16.215,0,11.993,0,5.756A5.746,5.746,0,0,1,5.729,0,5.642,5.642,0,0,1,9.76,1.67,5.642,5.642,0,0,1,13.791,0a5.752,5.752,0,0,1,5.729,5.756c0,6.246-5.511,10.459-8.979,11.648A2.35,2.35,0,0,1,9.76,17.522ZM5.729,1.362A4.386,4.386,0,0,0,1.362,5.756c0,6.2,5.965,9.651,8.062,10.368a1.439,1.439,0,0,0,.681,0c2.088-.717,8.062-4.158,8.062-10.368A4.386,4.386,0,0,0,13.8,1.362a4.314,4.314,0,0,0-3.486,1.761.7.7,0,0,1-1.089,0A4.331,4.331,0,0,0,5.729,1.362Z" transform="translate(1.135 2.133)" fill="#7b9aa7"/>
      <path id="Vector-2" data-name="Vector" d="M0,0H21.789V21.789H0Z" fill="none" opacity="0"/>
    </g>
  </g>
</svg>
