<svg xmlns="http://www.w3.org/2000/svg" width="44.642" height="40" viewBox="0 0 44.642 40">
  <g id="ic-feeding" transform="translate(-3 -4)">
    <g id="Flat" transform="translate(3 4)">
      <g id="Color">
        <circle id="Ellipse_30" data-name="Ellipse 30" cx="15.5" cy="15.5" r="15.5" transform="translate(6 9)" fill="#a1daf8"/>
        <path id="Path_24212" data-name="Path 24212" d="M26.381,19a13.075,13.075,0,0,0-13.04,12.2l-.221-.662-2.177,2.177.544,1.633a3.442,3.442,0,0,0,2.177,2.177,3.421,3.421,0,0,1,.51.239,13.109,13.109,0,0,0,6.358,7.01,3.442,3.442,0,0,0,1.84,1.459L24,45.78l.726-.726A13.079,13.079,0,1,0,26.381,19ZM31,38.242,28.321,40.92A15.27,15.27,0,0,1,16.509,24a13.052,13.052,0,0,1,4.883-1.77,6.716,6.716,0,0,0-2.708,5.241c0,2.976,2.412,6.158,5.388,6.158A5.378,5.378,0,0,0,28.3,31.576a7.813,7.813,0,0,0,1.16-4.109c0-1.488-.6-2.065-1.578-3.04-.522-.521-1.15-1.375-1.847-2.057A13.092,13.092,0,0,1,35.1,29.527l-8.718,8.715Zm4.618,1.313V30.776a12.9,12.9,0,0,1,0,8.778Z" transform="translate(-4.829 -7.455)" fill="#009fe3"/>
        <path id="Path_24213" data-name="Path 24213" d="M56.77,19.618a.77.77,0,0,1-.77-.77V15.77a.77.77,0,0,1,1.539,0v3.079A.77.77,0,0,1,56.77,19.618Z" transform="translate(-15.206 -6.533)" fill="#e9f1f2"/>
        <path id="Path_24214" data-name="Path 24214" d="M59.77,19.618a.77.77,0,0,1-.77-.77V15.77a.77.77,0,0,1,1.539,0v3.079A.77.77,0,0,1,59.77,19.618Z" transform="translate(-15.897 -6.533)" fill="#e9f1f2"/>
        <path id="Path_24215" data-name="Path 24215" d="M53.77,19.618a.77.77,0,0,1-.77-.77V15.77a.77.77,0,0,1,1.539,0v3.079A.77.77,0,0,1,53.77,19.618Z" transform="translate(-14.515 -6.533)" fill="#d0d8da"/>
        <path id="Path_24216" data-name="Path 24216" d="M55,24h3.079V39.394a1.539,1.539,0,1,1-3.079,0Z" transform="translate(-14.976 -8.606)" fill="#d0d8da"/>
        <path id="Path_24217" data-name="Path 24217" d="M56.539,26.971V38.624a1.543,1.543,0,0,0,1.339,1.524A1.539,1.539,0,0,1,55,39.394V24h3.079v2.024A3.054,3.054,0,0,1,56.539,26.971Z" transform="translate(-14.976 -8.606)" fill="#93999a"/>
        <path id="Path_24218" data-name="Path 24218" d="M53,20h6.158v1.539a3.079,3.079,0,0,1-6.158,0Z" transform="translate(-14.515 -7.685)" fill="#e9f1f2"/>
        <path id="Path_24219" data-name="Path 24219" d="M58.88,22.8A3.075,3.075,0,0,1,53,21.539V20h1.539a3.079,3.079,0,0,0,3.079,3.079A3.026,3.026,0,0,0,58.88,22.8Z" transform="translate(-14.515 -7.685)" fill="#d0d8da"/>
        <path id="Path_24220" data-name="Path 24220" d="M3,26H6.079V39.854a1.539,1.539,0,1,1-3.079,0Z" transform="translate(-3 -9.067)" fill="#d0d8da"/>
        <path id="Path_24221" data-name="Path 24221" d="M4.539,29.848v8.467a1.544,1.544,0,0,0,1.539,1.539,1.539,1.539,0,1,1-3.079,0V26H6.079v3.594a2.232,2.232,0,0,1-1.039.254Z" transform="translate(-3 -9.067)" fill="#93999a"/>
        <path id="Path_24222" data-name="Path 24222" d="M5.808,24.854H3V11a4.3,4.3,0,0,1,4.273,3.825l.83,7.465a2.309,2.309,0,0,1-2.3,2.564Z" transform="translate(-3 -5.612)" fill="#e9f1f2"/>
        <path id="Path_24223" data-name="Path 24223" d="M8.026,23.215a2.331,2.331,0,0,1-2.217,1.639H3V11a4.3,4.3,0,0,1,1.539.285v9.221a2.806,2.806,0,0,0,2.809,2.809A2.442,2.442,0,0,0,8.026,23.215Z" transform="translate(-3 -5.612)" fill="#d0d8da"/>
        <path id="Path_24224" data-name="Path 24224" d="M34.776,26.158a7.813,7.813,0,0,1-1.16,4.109,5.378,5.378,0,0,1-4.228,2.048c-2.976,0-5.388-3.182-5.388-6.158S26.412,20,29.388,20c1.488,0,2.835,2.142,3.81,3.117S34.776,24.67,34.776,26.158Z" transform="translate(-7.836 -7.685)" fill="#e9f1f2"/>
        <path id="Path_24225" data-name="Path 24225" d="M27.5,28.81a2.309,2.309,0,0,1,3.941-1.632,2.272,2.272,0,0,1,.677,1.632,2.309,2.309,0,0,1-4.618,0Z" transform="translate(-8.643 -9.183)" fill="#d0d8da"/>
        <path id="Path_24226" data-name="Path 24226" d="M34.337,29.549a4.772,4.772,0,0,1-.724,1.486,5.369,5.369,0,0,1-4.226,2.047C26.409,33.082,24,29.9,24,26.924a6.613,6.613,0,0,1,1.131-3.594,6.351,6.351,0,0,0-.362,2.055c0,2.979,2.409,6.158,5.388,6.158A5.357,5.357,0,0,0,34.337,29.549Z" transform="translate(-7.836 -8.452)" fill="#d0d8da"/>
        <path id="Path_24227" data-name="Path 24227" d="M32.618,28.309a2.309,2.309,0,1,1-.677-1.633,2.309,2.309,0,0,1,.677,1.633Z" transform="translate(-8.758 -9.067)" fill="#f9e109"/>
        <path id="Path_24228" data-name="Path 24228" d="M32.28,29.611a2.282,2.282,0,0,1-1.97,1.108,2.309,2.309,0,0,1-1.2-4.279,2.274,2.274,0,0,0-.339,1.2A2.309,2.309,0,0,0,31.08,29.95,2.274,2.274,0,0,0,32.28,29.611Z" transform="translate(-8.759 -9.168)" fill="#ffcc23"/>
        <path id="Path_24229" data-name="Path 24229" d="M30.01,43.228l-1.633-.544A3.442,3.442,0,0,1,26.2,40.506a3.446,3.446,0,0,0-2.177-2.177,3.442,3.442,0,0,1-2.177-2.177,3.441,3.441,0,0,0-2.177-2.177A3.444,3.444,0,0,1,17.493,31.8l-.544-1.632-2.177,2.177.544,1.633a3.444,3.444,0,0,0,2.177,2.177,3.442,3.442,0,0,1,2.177,2.177,3.441,3.441,0,0,0,2.177,2.177,3.442,3.442,0,0,1,2.177,2.177A3.441,3.441,0,0,0,26.2,44.86l1.633.544Z" transform="translate(-5.711 -10.026)" fill="#f89c8d"/>
        <path id="Path_24230" data-name="Path 24230" d="M27.182,46.056l-1.633-.544a3.441,3.441,0,0,1-2.177-2.177A3.442,3.442,0,0,0,21.2,41.157a3.441,3.441,0,0,1-2.177-2.177A3.442,3.442,0,0,0,16.841,36.8a3.444,3.444,0,0,1-2.177-2.177l-.544-1.633L11.943,35.17l.544,1.633a3.442,3.442,0,0,0,2.177,2.177,3.443,3.443,0,0,1,2.177,2.177,3.442,3.442,0,0,0,2.177,2.177A3.441,3.441,0,0,1,21.2,45.511a3.442,3.442,0,0,0,2.177,2.177L25,48.232Z" transform="translate(-5.06 -10.677)" fill="#f89c8d"/>
        <path id="Path_24231" data-name="Path 24231" d="M28.2,45.352,27.042,46.5l-1.27-.416a4.26,4.26,0,0,1-2.663-2.663,2.657,2.657,0,0,0-1.686-1.693,4.225,4.225,0,0,1-2.663-2.663,2.722,2.722,0,0,0-1.693-1.693A4.225,4.225,0,0,1,14.4,34.707l-.423-1.27,1.155-1.147a.757.757,0,0,1,.185.3l.546,1.632a2.694,2.694,0,0,0,1.686,1.693,4.208,4.208,0,0,1,2.663,2.663,2.694,2.694,0,0,0,1.693,1.686,4.225,4.225,0,0,1,2.663,2.663,2.686,2.686,0,0,0,1.693,1.693l1.632.546a.856.856,0,0,1,.3.185Z" transform="translate(-5.529 -10.515)" fill="#f8664f"/>
        <circle id="Ellipse_31" data-name="Ellipse 31" cx="2.5" cy="2.5" r="2.5" transform="translate(10 2)" fill="#f9e109"/>
        <circle id="Ellipse_32" data-name="Ellipse 32" cx="2.5" cy="2.5" r="2.5" transform="translate(18)" fill="#f9e109"/>
        <g id="Group_55173" data-name="Group 55173" transform="translate(10.005 0.1)">
          <path id="Path_24232" data-name="Path 24232" d="M20.518,10.009A2.309,2.309,0,1,1,17.639,7.13a2.386,2.386,0,0,0-.1.67,2.309,2.309,0,0,0,2.309,2.309,2.386,2.386,0,0,0,.67-.1Z" transform="translate(-15.998 -4.821)" fill="#ffcc23"/>
          <path id="Path_24233" data-name="Path 24233" d="M30.518,7.009A2.309,2.309,0,1,1,27.639,4.13a2.386,2.386,0,0,0-.1.67,2.309,2.309,0,0,0,2.309,2.309,2.386,2.386,0,0,0,.67-.1Z" transform="translate(-18.301 -4.13)" fill="#ffcc23"/>
          <path id="Path_24234" data-name="Path 24234" d="M43.236,39.236H34L43.236,30Z" transform="translate(-20.144 -10.088)" fill="#ffcc23"/>
        </g>
        <path id="Path_24235" data-name="Path 24235" d="M38.72,38.517a1.539,1.539,0,0,1-.556-2.523L34,40.158h9.236V34Z" transform="translate(-10.14 -10.909)" fill="#e3b621"/>
        <path id="Path_24236" data-name="Path 24236" d="M43.236,45.236H34L43.236,36Z" transform="translate(-10.14 -11.37)" fill="#f9e109"/>
        <path id="Path_24237" data-name="Path 24237" d="M43.236,45.215v1.539H34l4.164-4.164a1.539,1.539,0,0,0,1.093,2.625Z" transform="translate(-10.14 -12.888)" fill="#fcbc04"/>
        <path id="Path_24238" data-name="Path 24238" d="M40,47.309V45.77a.77.77,0,1,1,1.539,0v1.539Z" transform="translate(-11.521 -13.443)" fill="#fcbc04"/>
        <path id="Path_24239" data-name="Path 24239" d="M45.309,43.539H43.77a.77.77,0,0,1,0-1.539h1.539Z" transform="translate(-12.212 -12.752)" fill="#fcbc04"/>
        <path id="Path_24240" data-name="Path 24240" d="M41.539,45.961V47.5H40V45.961a.678.678,0,0,1,.015-.131,1.481,1.481,0,0,0,.623.131Z" transform="translate(-11.521 -13.634)" fill="#e59730"/>
      </g>
    </g>
  </g>
</svg>
