<svg xmlns="http://www.w3.org/2000/svg" width="20" height="20" viewBox="0 0 20 20">
  <g id="vuesax_outline_setting-4" data-name="vuesax/outline/setting-4" transform="translate(-428 -190)">
    <g id="setting-4" transform="translate(428 190)">
      <path id="Vector" d="M5.625,1.25h-5A.63.63,0,0,1,0,.625.63.63,0,0,1,.625,0h5A.63.63,0,0,1,6.25.625.63.63,0,0,1,5.625,1.25Z" transform="translate(12.708 4.792)" fill="#7b9aa7"/>
      <path id="Vector-2" data-name="Vector" d="M3.958,1.25H.625A.63.63,0,0,1,0,.625.63.63,0,0,1,.625,0H3.958a.63.63,0,0,1,.625.625A.63.63,0,0,1,3.958,1.25Z" transform="translate(1.042 4.792)" fill="#7b9aa7"/>
      <path id="Vector-3" data-name="Vector" d="M3.542,7.083A3.542,3.542,0,1,1,7.083,3.542,3.549,3.549,0,0,1,3.542,7.083Zm0-5.833A2.292,2.292,0,1,0,5.833,3.542,2.29,2.29,0,0,0,3.542,1.25Z" transform="translate(4.792 1.875)" fill="#7b9aa7"/>
      <path id="Vector-4" data-name="Vector" d="M3.958,1.25H.625A.63.63,0,0,1,0,.625.63.63,0,0,1,.625,0H3.958a.63.63,0,0,1,.625.625A.63.63,0,0,1,3.958,1.25Z" transform="translate(14.375 13.958)" fill="#7b9aa7"/>
      <path id="Vector-5" data-name="Vector" d="M5.625,1.25h-5A.63.63,0,0,1,0,.625.63.63,0,0,1,.625,0h5A.63.63,0,0,1,6.25.625.63.63,0,0,1,5.625,1.25Z" transform="translate(1.042 13.958)" fill="#7b9aa7"/>
      <path id="Vector-6" data-name="Vector" d="M3.542,7.083A3.542,3.542,0,1,1,7.083,3.542,3.549,3.549,0,0,1,3.542,7.083Zm0-5.833A2.292,2.292,0,1,0,5.833,3.542,2.29,2.29,0,0,0,3.542,1.25Z" transform="translate(8.125 11.042)" fill="#7b9aa7"/>
      <path id="Vector-7" data-name="Vector" d="M0,0H20V20H0Z" fill="none" opacity="0"/>
    </g>
  </g>
</svg>
