<svg id="Group_22437" data-name="Group 22437" xmlns="http://www.w3.org/2000/svg" width="24.563" height="24.563" viewBox="0 0 24.563 24.563">
  <path id="Path_24184" data-name="Path 24184" d="M277.951,211.479H267.932a.8.8,0,0,0-.8.8v3.2a.8.8,0,0,0,.8.8h5.642a7.531,7.531,0,0,1-3.242,3.8l2.406,4.165a12.042,12.042,0,0,0,6.141-10.532,8.12,8.12,0,0,0-.138-1.573A.8.8,0,0,0,277.951,211.479Z" transform="translate(-254.316 -201.334)" fill="#167ee6"/>
  <path id="Path_24185" data-name="Path 24185" d="M45.042,337.588a7.474,7.474,0,0,1-6.466-3.741l-4.164,2.4a12.272,12.272,0,0,0,16.771,4.5v-.006l-2.406-4.165A7.42,7.42,0,0,1,45.042,337.588Z" transform="translate(-32.76 -317.831)" fill="#12b347"/>
  <path id="Path_24186" data-name="Path 24186" d="M262.141,394.949v-.006l-2.406-4.165a7.42,7.42,0,0,1-3.735,1.01v4.806A12.261,12.261,0,0,0,262.141,394.949Z" transform="translate(-243.719 -372.032)" fill="#0f993e"/>
  <path id="Path_24187" data-name="Path 24187" d="M4.806,134.254a7.42,7.42,0,0,1,1.01-3.735l-4.164-2.4a12.225,12.225,0,0,0,0,12.27l4.164-2.4A7.42,7.42,0,0,1,4.806,134.254Z" transform="translate(0 -121.973)" fill="#ffd500"/>
  <path id="Path_24188" data-name="Path 24188" d="M45.042,4.806a7.441,7.441,0,0,1,4.746,1.7.8.8,0,0,0,1.074-.048l2.268-2.268a.807.807,0,0,0-.046-1.18A12.255,12.255,0,0,0,34.411,6.146l4.164,2.4A7.474,7.474,0,0,1,45.042,4.806Z" transform="translate(-32.76)" fill="#ff4b26"/>
  <path id="Path_24189" data-name="Path 24189" d="M260.746,6.51a.8.8,0,0,0,1.074-.048l2.268-2.268a.807.807,0,0,0-.046-1.18A12.244,12.244,0,0,0,256,0V4.806A7.441,7.441,0,0,1,260.746,6.51Z" transform="translate(-243.719 0)" fill="#d93f21"/>
</svg>
