<svg xmlns="http://www.w3.org/2000/svg" width="20" height="20" viewBox="0 0 20 20">
  <g id="vuesax_outline_home-2" data-name="vuesax/outline/home-2" transform="translate(-620 -188)">
    <g id="home-2" transform="translate(620 188)">
      <path id="Vector" d="M13.783,17.9H4.133A4.14,4.14,0,0,1,0,13.755V7.58A4.585,4.585,0,0,1,1.6,4.322L6.092.822A4.332,4.332,0,0,1,11,.705l5.15,3.608A4.552,4.552,0,0,1,17.917,7.7v6.067A4.138,4.138,0,0,1,13.783,17.9ZM6.858,1.805l-4.492,3.5A3.387,3.387,0,0,0,1.25,7.58v6.175a2.891,2.891,0,0,0,2.883,2.892h9.65a2.884,2.884,0,0,0,2.883-2.883V7.7a3.306,3.306,0,0,0-1.233-2.358L10.283,1.73A3.1,3.1,0,0,0,6.858,1.805Z" transform="translate(1.042 1.061)" fill="#009fe3"/>
      <path id="Vector-2" data-name="Vector" d="M.625,3.75A.63.63,0,0,1,0,3.125V.625A.63.63,0,0,1,.625,0,.63.63,0,0,1,1.25.625v2.5A.63.63,0,0,1,.625,3.75Z" transform="translate(9.375 11.875)" fill="#009fe3"/>
      <path id="Vector-3" data-name="Vector" d="M0,0H20V20H0Z" fill="none" opacity="0"/>
    </g>
  </g>
</svg>
