<svg id="Group_55169" data-name="Group 55169" xmlns="http://www.w3.org/2000/svg" width="22.14" height="22.14" viewBox="0 0 22.14 22.14">
  <ellipse id="Ellipse_2860" data-name="Ellipse 2860" cx="9.15" cy="2.562" rx="9.15" ry="2.562" transform="translate(1.92 17.016)" fill="#2abc84" opacity="0.202"/>
  <g id="vuesax_bold_location" data-name="vuesax/bold/location">
    <path id="Vector" d="M16.143,6.181A7.957,7.957,0,0,0,8.192,0H8.182A7.955,7.955,0,0,0,.231,6.171C-.849,10.931,2.066,14.963,4.7,17.5a5,5,0,0,0,6.965,0C14.308,14.963,17.223,10.941,16.143,6.181ZM8.192,10.8A2.906,2.906,0,1,1,11.1,7.9,2.905,2.905,0,0,1,8.192,10.8Z" transform="translate(2.878 1.614)" fill="#2abc84"/>
    <path id="Vector-2" data-name="Vector" d="M0,0H22.14V22.14H0Z" transform="translate(0 0)" fill="none" opacity="0"/>
    <path id="Vector-3" data-name="Vector" d="M0,0H22.14V22.14H0Z" transform="translate(22.14 22.14) rotate(180)" fill="none" opacity="0"/>
  </g>
</svg>
