<svg xmlns="http://www.w3.org/2000/svg" width="20" height="20" viewBox="0 0 20 20">
  <g id="vuesax_outline_map" data-name="vuesax/outline/map" transform="translate(-684 -252)">
    <g id="map" transform="translate(684 252)">
      <path id="Vector" d="M11.758,15.688a2.352,2.352,0,0,1-1.008-.217L6.375,13.28a1.259,1.259,0,0,0-.983.025L3.425,14.43a2.36,2.36,0,0,1-2.383.158A2.358,2.358,0,0,1,0,12.438v-8.1A2.466,2.466,0,0,1,1.158,2.347L4.767.28A2.455,2.455,0,0,1,6.925.222L11.3,2.413a1.3,1.3,0,0,0,.983-.025l1.958-1.117a2.36,2.36,0,0,1,2.383-.158,2.358,2.358,0,0,1,1.042,2.15v8.108a2.466,2.466,0,0,1-1.158,1.992L12.9,15.43A2.53,2.53,0,0,1,11.758,15.688ZM5.917,11.947a2.352,2.352,0,0,1,1.008.217L11.3,14.355a1.3,1.3,0,0,0,.983-.025l3.608-2.067a1.24,1.24,0,0,0,.525-.9V3.255a1.163,1.163,0,0,0-.425-1.067,1.2,1.2,0,0,0-1.133.167L12.9,3.472a2.455,2.455,0,0,1-2.158.058L6.367,1.338a1.3,1.3,0,0,0-.983.025L1.775,3.43a1.241,1.241,0,0,0-.525.908v8.108a1.181,1.181,0,0,0,.417,1.067,1.2,1.2,0,0,0,1.142-.167L4.767,12.23A2.307,2.307,0,0,1,5.917,11.947Z" transform="translate(1.283 2.153)" fill="#7b9aa7"/>
      <path id="Vector-2" data-name="Vector" d="M.625,12.083A.63.63,0,0,1,0,11.458V.625A.63.63,0,0,1,.625,0,.63.63,0,0,1,1.25.625V11.458A.63.63,0,0,1,.625,12.083Z" transform="translate(6.508 2.708)" fill="#7b9aa7"/>
      <path id="Vector-3" data-name="Vector" d="M.625,12.4A.63.63,0,0,1,0,11.775V.625A.63.63,0,0,1,.625,0,.63.63,0,0,1,1.25.625v11.15A.63.63,0,0,1,.625,12.4Z" transform="translate(12.483 4.892)" fill="#7b9aa7"/>
      <path id="Vector-4" data-name="Vector" d="M0,0H20V20H0Z" fill="none" opacity="0"/>
    </g>
  </g>
</svg>
