<svg xmlns="http://www.w3.org/2000/svg" width="24" height="24" viewBox="0 0 24 24">
  <g id="vuesax_outline_notification-bing" data-name="vuesax/outline/notification-bing" transform="translate(-108 -188)">
    <g id="notification-bing">
      <path id="Vector" d="M.75,4.83A.755.755,0,0,1,0,4.08V.75A.755.755,0,0,1,.75,0,.755.755,0,0,1,1.5.75V4.08A.749.749,0,0,1,.75,4.83Z" transform="translate(119.25 193.69)" fill="#009fe3"/>
      <path id="Vector-2" data-name="Vector" d="M9.669,19.11a23.953,23.953,0,0,1-7.6-1.23,2.97,2.97,0,0,1-1.9-1.77,3.008,3.008,0,0,1,.29-2.58l1.27-2.12a4.508,4.508,0,0,0,.53-1.9V7.41a7.41,7.41,0,1,1,14.82,0v2.1a4.549,4.549,0,0,0,.53,1.9l1.27,2.12a2.972,2.972,0,0,1-1.61,4.35A23.675,23.675,0,0,1,9.669,19.11Zm0-17.6a5.915,5.915,0,0,0-5.91,5.91v2.1a5.94,5.94,0,0,1-.74,2.67l-1.27,2.13a1.474,1.474,0,0,0-.17,1.29,1.477,1.477,0,0,0,.97.86,22.725,22.725,0,0,0,14.26,0,1.423,1.423,0,0,0,.91-.88,1.46,1.46,0,0,0-.12-1.27l-1.27-2.12a5.94,5.94,0,0,1-.74-2.67V7.43A5.932,5.932,0,0,0,9.669,1.51Z" transform="translate(110.351 189.24)" fill="#009fe3"/>
      <path id="Vector-3" data-name="Vector" d="M4.08,4.08A4.107,4.107,0,0,1,1.2,2.88,4.107,4.107,0,0,1,0,0H1.5a2.591,2.591,0,0,0,.76,1.82,2.591,2.591,0,0,0,1.82.76A2.586,2.586,0,0,0,6.66,0h1.5A4.084,4.084,0,0,1,4.08,4.08Z" transform="translate(115.92 206.82)" fill="#009fe3"/>
      <path id="Vector-4" data-name="Vector" d="M0,0H24V24H0Z" transform="translate(108 188)" fill="none" opacity="0"/>
    </g>
  </g>
</svg>
