<svg xmlns="http://www.w3.org/2000/svg" width="20" height="20" viewBox="0 0 20 20">
  <g id="vuesax_outline_slider-vertical" data-name="vuesax/outline/slider-vertical" transform="translate(-492 -188)">
    <g id="slider-vertical" transform="translate(492 188)">
      <path id="Vector" d="M12.292,12.917h-7.5a10.064,10.064,0,0,1-1.475-.083C.55,12.533,0,10.875,0,8.125V4.792C0,2.042.55.383,3.342.075A10.924,10.924,0,0,1,4.792,0h7.5a10.064,10.064,0,0,1,1.475.083c2.775.308,3.317,1.958,3.317,4.708V8.125c0,2.75-.55,4.408-3.342,4.717A10.924,10.924,0,0,1,12.292,12.917ZM4.792,1.25A10.125,10.125,0,0,0,3.5,1.317c-1.692.192-2.25.717-2.25,3.475V8.125c0,2.758.558,3.283,2.225,3.475a9.385,9.385,0,0,0,1.317.067h7.5a10.126,10.126,0,0,0,1.292-.067c1.692-.183,2.25-.717,2.25-3.475V4.792c0-2.758-.558-3.283-2.225-3.475a9.385,9.385,0,0,0-1.317-.067Z" transform="translate(1.458 3.542)" fill="#7b9aa7"/>
      <path id="Vector-2" data-name="Vector" d="M13.125,1.25H.625A.63.63,0,0,1,0,.625.63.63,0,0,1,.625,0h12.5a.63.63,0,0,1,.625.625A.63.63,0,0,1,13.125,1.25Z" transform="translate(3.125 1.042)" fill="#7b9aa7"/>
      <path id="Vector-3" data-name="Vector" d="M13.125,1.25H.625A.63.63,0,0,1,0,.625.63.63,0,0,1,.625,0h12.5a.63.63,0,0,1,.625.625A.63.63,0,0,1,13.125,1.25Z" transform="translate(3.542 17.708)" fill="#7b9aa7"/>
      <path id="Vector-4" data-name="Vector" d="M0,0H20V20H0Z" fill="none" opacity="0"/>
    </g>
  </g>
</svg>
