<svg xmlns="http://www.w3.org/2000/svg" width="42.271" height="43" viewBox="0 0 42.271 43">
  <g id="ic-others" transform="translate(-3 -3)">
    <g id="Online_Shopping-Shopping-Smartphone-Shopping_Bag-Commerce" data-name="Online Shopping-Shopping-Smartphone-Shopping Bag-Commerce" transform="translate(3 3)">
      <path id="Path_24271" data-name="Path 24271" d="M33.322,7.373V33.61a4.373,4.373,0,0,1-4.373,4.373H14.373a4.382,4.382,0,0,1-3.79-2.186v-.007A4.328,4.328,0,0,1,10,33.61V7.373A4.373,4.373,0,0,1,14.373,3H28.949a4.373,4.373,0,0,1,4.358,4.045C33.315,7.154,33.322,7.264,33.322,7.373Z" transform="translate(-4.898 -3)" fill="#a1daf8"/>
      <path id="Path_24272" data-name="Path 24272" d="M38.914,11.25V31.285a10.873,10.873,0,0,1-3.17-2.1l-5.124.955,2.653-4.489a10.932,10.932,0,0,1,5.641-14.4Z" transform="translate(-10.49 -5.237)" fill="#3d9ae2"/>
      <path id="Path_24273" data-name="Path 24273" d="M52.051,20.828A10.932,10.932,0,0,1,39.392,29.7a9.425,9.425,0,0,1-1.02-.233,10.879,10.879,0,0,1-4.628-2.616L28.62,27.8l2.653-4.489a10.93,10.93,0,1,1,20.778-2.485Z" transform="translate(-9.948 -4.356)" fill="#ffcc23"/>
      <path id="Path_24274" data-name="Path 24274" d="M49.831,20.559H48.373V16.915a1.458,1.458,0,1,0-2.915,0v3.644H44V16.915a2.915,2.915,0,1,1,5.831,0Z" transform="translate(-14.119 -5.983)" fill="#ebbf00"/>
      <path id="Path_24275" data-name="Path 24275" d="M41,20v8.746A1.462,1.462,0,0,0,42.458,30.2h7.288A1.462,1.462,0,0,0,51.2,28.746V20Z" transform="translate(-13.305 -7.61)" fill="#ebbf00"/>
      <path id="Path_24276" data-name="Path 24276" d="M49.2,28v1.458a1.462,1.462,0,0,1-1.458,1.458H40.458A1.462,1.462,0,0,1,39,29.458V28Z" transform="translate(-12.763 -9.78)" fill="#003b64"/>
      <path id="Path_24277" data-name="Path 24277" d="M39,18H49.2v7.288H39Z" transform="translate(-12.763 -7.068)" fill="#009fe3"/>
      <path id="Path_24278" data-name="Path 24278" d="M26.373,43a1.458,1.458,0,0,1,0,2.915H23.458a1.458,1.458,0,1,1,0-2.915Z" transform="translate(-8.153 -13.847)" fill="#e1edf2"/>
      <path id="Path_24279" data-name="Path 24279" d="M22.656,43.61a2.2,2.2,0,0,1-.292,1.093l-.24.423A1.385,1.385,0,0,1,22,44.55a1.425,1.425,0,0,1,.43-1.028,1.646,1.646,0,0,1,.211-.182c.007.087.015.182.015.27Z" transform="translate(-8.153 -13.94)" fill="#e6e7e8"/>
      <path id="Path_24280" data-name="Path 24280" d="M20.975,19.853A2.921,2.921,0,1,1,18.913,19a2.921,2.921,0,0,1,2.063.853Z" transform="translate(-6.523 -7.339)" fill="#3d9ae2"/>
      <path id="Path_24281" data-name="Path 24281" d="M18.975,17.853A2.921,2.921,0,1,1,16.913,17a2.921,2.921,0,0,1,2.063.853Z" transform="translate(-5.981 -6.797)" fill="#ffd422"/>
      <path id="Path_24282" data-name="Path 24282" d="M16.046,38.269a2.186,2.186,0,0,0-4.081-1.093l-3.28,5.67A4.328,4.328,0,0,1,8.1,40.666V29.02a1.458,1.458,0,0,0-1.122.831L3.671,37.03A7.221,7.221,0,0,0,3,40.076v12.98l11.661-.007V49.886a4.39,4.39,0,0,0-.627-2.252l-1.56-2.595,3.28-5.677a2.2,2.2,0,0,0,.292-1.093Z" transform="translate(-3 -10.056)" fill="#e5b516"/>
      <path id="Path_24283" data-name="Path 24283" d="M18,6h1.458V7.458H18Z" transform="translate(-7.068 -3.814)" fill="#3d9ae2"/>
      <path id="Path_24284" data-name="Path 24284" d="M22,6h5.831V7.458H22Z" transform="translate(-8.153 -3.814)" fill="#3d9ae2"/>
      <path id="Path_24285" data-name="Path 24285" d="M47.831,18.559H46.373V14.915a1.458,1.458,0,1,0-2.915,0v3.644H42V14.915a2.915,2.915,0,1,1,5.831,0Z" transform="translate(-13.576 -5.441)" fill="#018dc9"/>
      <path id="Path_24286" data-name="Path 24286" d="M0,0H6.184V1.458H0Z" transform="translate(9.685 13.332) rotate(-45)" fill="#ed1c24"/>
      <g id="Group_55175" data-name="Group 55175" transform="translate(16.034 10.932)">
        <path id="Path_24287" data-name="Path 24287" d="M25,18h2.915v1.458H25Z" transform="translate(-25 -18)" fill="#1e81ce"/>
        <path id="Path_24288" data-name="Path 24288" d="M25,22h2.915v1.458H25Z" transform="translate(-25 -19.085)" fill="#1e81ce"/>
      </g>
    </g>
  </g>
</svg>
