<svg xmlns="http://www.w3.org/2000/svg" width="17.261" height="17.262" viewBox="0 0 17.261 17.262">
  <g id="Group_55267" data-name="Group 55267" transform="translate(-24 -23.999)">
    <g id="Solid" transform="translate(24 23.999)">
      <path id="Path_24462" data-name="Path 24462" d="M143.015,28.89l1.843-1.843V36.8a.893.893,0,1,0,1.786,0V27.047l1.843,1.843a.893.893,0,1,0,1.263-1.263l-3.367-3.367a.893.893,0,0,0-1.263,0l-3.367,3.367a.893.893,0,1,0,1.263,1.263Z" transform="translate(-137.12 -23.999)" fill="#7b9aa7"/>
      <path id="Path_24463" data-name="Path 24463" d="M40.369,232a.893.893,0,0,0-.893.893v6.845H25.786v-6.845a.893.893,0,1,0-1.786,0v7.143a1.488,1.488,0,0,0,1.488,1.488H39.773a1.488,1.488,0,0,0,1.488-1.488v-7.143A.893.893,0,0,0,40.369,232Z" transform="translate(-24 -224.262)" fill="#7b9aa7"/>
    </g>
  </g>
</svg>
