<svg xmlns="http://www.w3.org/2000/svg" width="15.999" height="15.892" viewBox="0 0 15.999 15.892">
  <path id="Vector" d="M9.389,1.149l1.41,2.82a1.759,1.759,0,0,0,1.13.84l2.55.42c1.63.27,2.01,1.45.84,2.63l-1.99,1.99a1.726,1.726,0,0,0-.41,1.45l.57,2.46c.45,1.94-.59,2.7-2.3,1.68L8.8,14.019a1.7,1.7,0,0,0-1.58,0l-2.39,1.42c-1.71,1.01-2.75.26-2.3-1.68L3.1,11.3a1.817,1.817,0,0,0-.43-1.46L.679,7.849c-1.17-1.17-.79-2.35.84-2.63l2.55-.42a1.727,1.727,0,0,0,1.13-.84l1.41-2.82C7.379-.381,8.619-.381,9.389,1.149Z" fill="#ffcc23"/>
</svg>
