<svg xmlns="http://www.w3.org/2000/svg" width="31.198" height="33.172" viewBox="0 0 31.198 33.172">
  <g id="Group_55193" data-name="Group 55193" transform="translate(-15.237)">
    <path id="Path_24289" data-name="Path 24289" d="M27.249,76.348a.5.5,0,0,0-.986-.174,12.334,12.334,0,0,0-.112,2.951L24.56,74.5a.5.5,0,1,0-.947.326l1.414,4.108-.093-.166a6.318,6.318,0,0,0-2.771-2.948.5.5,0,0,0-.358.935c1.107.424,2.2,2.276,2.832,3.6l.371.945,2.425-.8-.23-1.027A11.206,11.206,0,0,1,27.249,76.348Z" transform="translate(-5.841 -69.359)" fill="#77d057"/>
    <path id="Path_24290" data-name="Path 24290" d="M310.058,145.242h-5.19l-1.762,3.379a.832.832,0,0,0-.094.385v8.787a.832.832,0,0,0,.832.832h7.239a.832.832,0,0,0,.832-.832v-8.787a.831.831,0,0,0-.094-.385Z" transform="translate(-269.129 -135.832)" fill="#e9eaeb"/>
    <path id="Path_24291" data-name="Path 24291" d="M361.532,148.621l-1.762-3.379h-3.6l1.762,3.379a.832.832,0,0,1,.094.385v8.787a.832.832,0,0,1-.832.832h3.6a.832.832,0,0,0,.832-.832v-8.787A.832.832,0,0,0,361.532,148.621Z" transform="translate(-318.841 -135.832)" fill="#c8cbce"/>
    <path id="Path_24292" data-name="Path 24292" d="M317.863,129.066H310.93a.5.5,0,0,1-.5-.5v-.74a.5.5,0,0,1,.5-.5h6.934a.5.5,0,0,1,.5.5v.74A.5.5,0,0,1,317.863,129.066Z" transform="translate(-276.063 -119.068)" fill="#fd9727"/>
    <path id="Path_24293" data-name="Path 24293" d="M380.316,127.317H377.2v1.749h3.112a.5.5,0,0,0,.5-.5v-.74A.5.5,0,0,0,380.316,127.317Z" transform="translate(-338.515 -119.068)" fill="#f9662b"/>
    <path id="Path_24294" data-name="Path 24294" d="M335.819,229.8h-4.9a.206.206,0,0,1-.206-.206v-4.9a.206.206,0,0,1,.206-.206h4.9a.206.206,0,0,1,.206.206v4.9A.206.206,0,0,1,335.819,229.8Z" transform="translate(-295.035 -209.938)" fill="#5bdcfd"/>
    <path id="Path_24295" data-name="Path 24295" d="M386.428,224.481h-1.6V229.8h1.6a.206.206,0,0,0,.206-.206v-4.9A.206.206,0,0,0,386.428,224.481Z" transform="translate(-345.643 -209.937)" fill="#48c7e5"/>
    <path id="Path_24296" data-name="Path 24296" d="M194.629,11.069V5.4h-2.9v5.671a4.056,4.056,0,0,1-1.113,2.791h0a4.056,4.056,0,0,0-1.113,2.791V33.115a1.02,1.02,0,0,0,1.02,1.02h5.314a1.02,1.02,0,0,0,1.02-1.02V16.651a4.056,4.056,0,0,0-1.113-2.791h0A4.057,4.057,0,0,1,194.629,11.069Z" transform="translate(-162.973 -5.048)" fill="#602952"/>
    <path id="Path_24297" data-name="Path 24297" d="M222.721,13.86h0a4.056,4.056,0,0,1-1.113-2.791V5.4h-2.9v5.671a4.055,4.055,0,0,1-.356,1.662,4.055,4.055,0,0,0,.756,1.129h0a4.056,4.056,0,0,1,1.113,2.791V33.115a1.02,1.02,0,0,1-1.02,1.02h3.616a1.02,1.02,0,0,0,1.02-1.02V16.651A4.057,4.057,0,0,0,222.721,13.86Z" transform="translate(-189.951 -5.048)" fill="#4c1c40"/>
    <path id="Path_24298" data-name="Path 24298" d="M223.722,5.028V.172A.172.172,0,0,0,223.55,0h-3.011a.172.172,0,0,0-.172.172V5.028a.172.172,0,0,0,.172.172h3.011A.172.172,0,0,0,223.722,5.028Z" transform="translate(-191.84)" fill="#fdc74f"/>
    <path id="Path_24299" data-name="Path 24299" d="M233.466,214.431h-4.31a.508.508,0,0,1-.508-.508v-7.234a.508.508,0,0,1,.508-.508h4.31Z" transform="translate(-199.584 -192.822)" fill="#e8b19c"/>
    <rect id="Rectangle_18820" data-name="Rectangle 18820" width="3.616" height="8.251" transform="translate(30.265 13.358)" fill="#d09c84"/>
    <path id="Path_24300" data-name="Path 24300" d="M53.268,178.281,50.449,161.8a2.37,2.37,0,0,0-3.108-1.841l-3.231,1.112a2.37,2.37,0,0,0-1.316,3.364l7.919,14.722A1.369,1.369,0,0,0,53.268,178.281Z" transform="translate(-25.506 -149.477)" fill="#fd9727"/>
    <path id="Path_24301" data-name="Path 24301" d="M105.7,178.281,102.882,161.8a2.37,2.37,0,0,0-3.108-1.841l-1.2.412,4.57,18.786A1.369,1.369,0,0,0,105.7,178.281Z" transform="translate(-77.939 -149.477)" fill="#f9662b"/>
    <path id="Path_24302" data-name="Path 24302" d="M64.007,309.669H45.342a1.888,1.888,0,0,1-1.843-1.48l-2.772-12.537H68.622L65.85,308.189A1.888,1.888,0,0,1,64.007,309.669Z" transform="translate(-23.839 -276.497)" fill="#fdc74f"/>
    <path id="Path_24303" data-name="Path 24303" d="M349.014,295.652l-2.772,12.537a1.888,1.888,0,0,1-1.843,1.48H348a1.887,1.887,0,0,0,1.843-1.48l2.772-12.537Z" transform="translate(-307.836 -276.497)" fill="#fca629"/>
    <path id="Path_24304" data-name="Path 24304" d="M45.867,290.918H15.805a.568.568,0,0,1-.568-.568v-1.412a.568.568,0,0,1,.568-.568H45.867a.568.568,0,0,1,.568.568v1.412A.568.568,0,0,1,45.867,290.918Z" transform="translate(0 -269.687)" fill="#a1daf8"/>
    <path id="Path_24305" data-name="Path 24305" d="M444,288.37h-3.048v2.548H444a.568.568,0,0,0,.568-.568v-1.412A.568.568,0,0,0,444,288.37Z" transform="translate(-398.128 -269.687)" fill="#009fe3"/>
    <g id="Group_55191" data-name="Group 55191" transform="translate(22.345 23.49)">
      <path id="Path_24306" data-name="Path 24306" d="M207.518,369.185a.5.5,0,0,0,.5.466h.036a.5.5,0,0,0,.464-.535l-.427-6.088a.5.5,0,1,0-1,.07Z" transform="translate(-201.768 -362.561)" fill="#fff"/>
      <path id="Path_24307" data-name="Path 24307" d="M126.835,371.232a.5.5,0,0,1-.593-.387l-1.282-6.088a.5.5,0,1,1,.98-.206l1.282,6.088A.5.5,0,0,1,126.835,371.232Z" transform="translate(-124.948 -364.05)" fill="#fff"/>
      <path id="Path_24308" data-name="Path 24308" d="M291.564,369.185a.5.5,0,0,1-.5.466h-.036a.5.5,0,0,1-.464-.535l.427-6.088a.5.5,0,0,1,1,.07Z" transform="translate(-279.834 -362.561)" fill="#fff"/>
      <path id="Path_24309" data-name="Path 24309" d="M359.905,371.232a.5.5,0,0,0,.593-.387l1.282-6.088a.5.5,0,0,0-.98-.206l-1.282,6.088A.5.5,0,0,0,359.905,371.232Z" transform="translate(-344.311 -364.05)" fill="#fff"/>
    </g>
    <g id="Group_55192" data-name="Group 55192" transform="translate(17.695 14.419)">
      <path id="Path_24310" data-name="Path 24310" d="M57.193,223.528a.5.5,0,0,0-.326-.947l-3.7,1.271.481.894Z" transform="translate(-53.17 -222.553)" fill="#fdc74f"/>
      <path id="Path_24311" data-name="Path 24311" d="M71.578,262.6l2.494-.811a.5.5,0,1,0-.326-.947l-2.747.94.44.818Z" transform="translate(-69.844 -258.338)" fill="#fdc74f"/>
    </g>
  </g>
</svg>
