<svg width="16" height="16" viewBox="0 0 16 16" fill="none" xmlns="http://www.w3.org/2000/svg">
<path d="M4.84506 2.50793V2.53565H9.21095V6.86341H4.81121L4.81251 6.90581V8.47287C4.81251 8.48592 4.81251 8.49896 4.81121 8.51201C4.79949 8.84955 4.71095 9.08926 4.54298 9.22786C4.37501 9.3681 4.15365 9.38115 3.88152 9.26537C3.85157 9.25232 3.82553 9.23439 3.80209 9.21156C2.48699 7.92008 1.58074 6.6286 0.265634 5.33549L0.247404 5.31592C0.0286545 5.06806 -0.0312414 4.80879 0.0143315 4.54951C0.0546961 4.32122 0.1823 4.12554 0.352873 3.95758L3.57683 0.375031C3.73438 0.220119 3.89975 0.0994502 4.0547 0.0407466C4.19402 -0.0114344 4.32944 -0.0163264 4.45444 0.0407466C4.59115 0.102712 4.69923 0.228272 4.76954 0.430473C4.81902 0.575602 4.84636 0.761497 4.84636 0.99468V2.47042C4.84636 2.4851 4.84636 2.49652 4.84506 2.50793ZM11.155 13.4904V13.4627H6.78907V9.13655H11.1888L11.1875 9.09415V7.52709C11.1875 7.51404 11.1875 7.49937 11.1888 7.48795C11.2005 7.15041 11.2891 6.9107 11.457 6.7721C11.625 6.63186 11.8464 6.61881 12.1185 6.73459C12.1484 6.74764 12.1745 6.76557 12.1979 6.7884C13.513 8.07988 14.4193 9.37299 15.7331 10.6661L15.7513 10.6857C15.9701 10.9335 16.03 11.1928 15.9844 11.4521C15.944 11.6804 15.8164 11.876 15.6458 12.044L12.4232 15.6249C12.2656 15.7798 12.1003 15.9005 11.9453 15.9592C11.806 16.0114 11.6706 16.0163 11.5456 15.9592C11.4089 15.8972 11.3008 15.7717 11.2305 15.5695C11.181 15.4244 11.1537 15.2385 11.1537 15.0053V13.5279C11.1537 13.5149 11.1537 13.5034 11.155 13.4904Z" fill="black"/>
</svg>
