<svg id="vuesax_outline_profile-circle" data-name="vuesax/outline/profile-circle" xmlns="http://www.w3.org/2000/svg" width="51.346" height="51.346" viewBox="0 0 51.346 51.346">
  <g id="profile-circle">
    <path id="Vector" d="M8.857,17.222H8.493a8.537,8.537,0,1,1,.428,0ZM8.6,3.188a5.415,5.415,0,0,0-.214,10.825,1.8,1.8,0,0,1,.492,0A5.416,5.416,0,0,0,8.6,3.188Z" transform="translate(17.073 11.724)" fill="#7b9aa7"/>
    <path id="Vector-2" data-name="Vector" d="M16.031,17.233A22.914,22.914,0,0,1,.52,11.2,1.615,1.615,0,0,1,.006,9.852,9.431,9.431,0,0,1,4.5,3.177c6.375-4.236,16.709-4.236,23.063,0a9.472,9.472,0,0,1,4.493,6.675,1.532,1.532,0,0,1-.513,1.348A22.914,22.914,0,0,1,16.031,17.233ZM3.365,9.424a19.7,19.7,0,0,0,12.665,4.6A19.7,19.7,0,0,0,28.7,9.424,6.955,6.955,0,0,0,25.765,5.83c-5.263-3.509-14.184-3.509-19.49,0A6.9,6.9,0,0,0,3.365,9.424Z" transform="translate(9.642 31.439)" fill="#7b9aa7"/>
    <path id="Vector-3" data-name="Vector" d="M0,0H51.346V51.346H0Z" fill="none" opacity="0"/>
  </g>
</svg>
