<svg xmlns="http://www.w3.org/2000/svg" width="37.214" height="32.671" viewBox="0 0 37.214 32.671">
  <g id="Group_55259" data-name="Group 55259" transform="translate(0 -31.25)">
    <g id="Group_55250" data-name="Group 55250" transform="translate(3.016 39.753)">
      <path id="Path_24379" data-name="Path 24379" d="M42.982,305.45a1.974,1.974,0,0,1,1.586.791l.027.035.043-.007a1.338,1.338,0,0,1,.81.11l.071.033.028-.073a1.94,1.94,0,0,1,3.731.42l.007.051.051.01a1.091,1.091,0,0,1,.881,1.07,1.076,1.076,0,0,1-.077.394l-.039.1h.561a.291.291,0,0,1,.291.291v.882h5.32V297.236H41.5v8.878A1.985,1.985,0,0,1,42.982,305.45Z" transform="translate(-41.5 -286.406)" fill="#ffcc23"/>
      <path id="Path_24380" data-name="Path 24380" d="M90.768,153.181H87.976c-.07,0-.11-.018-.118-.035s.007-.058.054-.11l4.441-4.8H78.778v7.089H90.84v-2.07A.073.073,0,0,0,90.768,153.181Z" transform="translate(-76.069 -148.236)" fill="#39b5ea"/>
    </g>
    <rect id="Rectangle_18827" data-name="Rectangle 18827" width="1.833" height="7.089" transform="translate(5.726 39.753)" opacity="0.1"/>
    <path id="Path_24381" data-name="Path 24381" d="M61.445,95.7v.767a.291.291,0,0,1-.291.291h-4.07a.291.291,0,0,1-.291-.291V95.7H54.852a.868.868,0,0,0-.593.282l-2.746,3.378c-.126.155-.066.282.134.282H66.9L70.543,95.7h-9.1Z" transform="translate(-47.708 -59.765)" fill="#009fe3"/>
    <g id="Group_55251" data-name="Group 55251" transform="translate(3.739 35.934)" opacity="0.1">
      <path id="Path_24382" data-name="Path 24382" d="M53.365,99.359l2.746-3.378A.868.868,0,0,1,56.7,95.7H54.852a.868.868,0,0,0-.593.282l-2.746,3.378c-.126.155-.066.282.134.282H53.5C53.3,99.641,53.239,99.514,53.365,99.359Z" transform="translate(-51.447 -95.699)"/>
    </g>
    <path id="Path_24383" data-name="Path 24383" d="M42.982,305.45a2,2,0,0,1,.372.035v-8.249H41.5v8.878A1.985,1.985,0,0,1,42.982,305.45Z" transform="translate(-38.484 -246.653)" opacity="0.1"/>
    <path id="Path_24384" data-name="Path 24384" d="M68.214,345.2l.027.035.043-.007a1.338,1.338,0,0,1,.81.11l.033.016h.045l.021-.055a1.937,1.937,0,0,1,.6-.811v-4.876a.364.364,0,0,0-.363-.363H67.363a.364.364,0,0,0-.363.363v4.832A1.975,1.975,0,0,1,68.214,345.2Z" transform="translate(-62.13 -285.614)" fill="#a1daf8"/>
    <path id="Path_24385" data-name="Path 24385" d="M59.673,337.456a1.976,1.976,0,0,1,.917.224V332.84h1.7v5.015h-1.42a2.02,2.02,0,0,1,.391.391l.027.035.043-.007a1.338,1.338,0,0,1,.81.11l.071.033.028-.073a1.953,1.953,0,0,1,1.14-1.12v-4.567a.91.91,0,0,0-.909-.909H60.409a.91.91,0,0,0-.909.909v4.805C59.557,337.459,59.615,337.456,59.673,337.456Z" transform="translate(-55.175 -278.659)" fill="#775436"/>
    <path id="Path_24386" data-name="Path 24386" d="M127.484,345.355h.875a.364.364,0,0,0,.363-.363v-5.379a.364.364,0,0,0-.363-.363H126.3a.364.364,0,0,0-.363.363v4.465A1.956,1.956,0,0,1,127.484,345.355Z" transform="translate(-116.781 -285.614)" fill="#a1daf8"/>
    <path id="Path_24387" data-name="Path 24387" d="M118.7,337.1a1.92,1.92,0,0,1,.825.187v-4.449h1.7v5.015h-.992a1.921,1.921,0,0,1,.39.91l.007.051.051.01a1.08,1.08,0,0,1,.323.119h.4a.91.91,0,0,0,.909-.909V332.66a.91.91,0,0,0-.909-.909h-2.061a.91.91,0,0,0-.909.909v4.464A1.894,1.894,0,0,1,118.7,337.1Z" transform="translate(-109.826 -278.66)" fill="#775436"/>
    <path id="Path_24388" data-name="Path 24388" d="M187.431,344.992a.364.364,0,0,1-.363.363h-2.061a.364.364,0,0,1-.363-.363v-5.379a.364.364,0,0,1,.363-.363h2.061a.364.364,0,0,1,.363.363Z" transform="translate(-171.223 -285.614)" fill="#a1daf8"/>
    <path id="Path_24389" data-name="Path 24389" d="M180.113,338.946h-2.061a.91.91,0,0,1-.909-.909v-5.379a.91.91,0,0,1,.909-.909h2.061a.91.91,0,0,1,.909.909v5.379A.91.91,0,0,1,180.113,338.946Zm-1.879-1.09h1.7V332.84h-1.7Z" transform="translate(-164.268 -278.659)" fill="#775436"/>
    <path id="Path_24390" data-name="Path 24390" d="M36.32,412.257l-.06-.108a1.364,1.364,0,0,1,1-2.013,2.062,2.062,0,0,0-3.526,2.121H36.32Z" transform="translate(-31.073 -350.526)" fill="#5dc647"/>
    <path id="Path_24391" data-name="Path 24391" d="M74.752,407.756a1.16,1.16,0,0,0-.829-1.634,2.013,2.013,0,0,0-3.87-.436,1.438,1.438,0,0,0-1.829,2.07h6.528Z" transform="translate(-63.058 -346.026)" fill="#368c0e"/>
    <path id="Path_24392" data-name="Path 24392" d="M31.139,450.862v-.882a.364.364,0,0,0-.363-.363H20.419a.364.364,0,0,0-.363.363v.882Z" transform="translate(-18.598 -387.959)" fill="#775436"/>
    <path id="Path_24393" data-name="Path 24393" d="M21.906,450.862v-.882a.364.364,0,0,1,.363-.363h-1.85a.364.364,0,0,0-.363.363v.882Z" transform="translate(-18.598 -387.959)" opacity="0.1"/>
    <path id="Path_24394" data-name="Path 24394" d="M26.827,244.014H13.152a.868.868,0,0,0-.593.282l-2.746,3.378c-.126.155-.066.282.134.282h16.88Z" transform="translate(-9.039 -197.3)" fill="#a1daf8"/>
    <g id="Group_55252" data-name="Group 55252" transform="translate(0.708 46.714)" opacity="0.1">
      <path id="Path_24395" data-name="Path 24395" d="M11.643,247.674,14.39,244.3a.868.868,0,0,1,.593-.282h-1.83a.868.868,0,0,0-.593.282l-2.746,3.378c-.126.155-.066.282.134.282h1.83C11.578,247.956,11.517,247.829,11.643,247.674Z" transform="translate(-9.747 -244.014)"/>
    </g>
    <path id="Path_24396" data-name="Path 24396" d="M224.171,67.962l-10.46-11.306a.332.332,0,0,0-.494,0L202.758,67.962c-.136.147-.083.267.117.267h2.864v-.049l7.725-8.35,7.725,8.35v.049h2.864C224.254,68.229,224.307,68.109,224.171,67.962Z" transform="translate(-187.951 -23.458)" fill="#a1daf8"/>
    <path id="Path_24397" data-name="Path 24397" d="M258.519,126.89v-3.146h-2.494a.122.122,0,0,1-.119-.206l1.658-2.871h-.689a.122.122,0,0,1-.119-.206l1.445-2.5h-.6a.122.122,0,0,1-.119-.206l1.641-2.842c.034-.059.078-.093.119-.093a.122.122,0,0,1,.087.049v-6.185l-7.8-8.429-7.8,8.429V126.89Z" transform="translate(-226.02 -63.987)" fill="#ffcc23"/>
    <rect id="Rectangle_18828" data-name="Rectangle 18828" width="1.596" height="3.146" transform="translate(32.426 59.758)" fill="#775436"/>
    <path id="Path_24398" data-name="Path 24398" d="M245.571,126.89V108.681l6.88-7.436-.918-.992-7.8,8.429V126.89Z" transform="translate(-226.02 -63.987)" opacity="0.1"/>
    <path id="Path_24399" data-name="Path 24399" d="M317.47,349.072v-8.86a.364.364,0,0,0-.363-.363h-4.98a.364.364,0,0,0-.363.363v8.86Z" transform="translate(-289.103 -286.168)" fill="#b2762f"/>
    <path id="Path_24400" data-name="Path 24400" d="M313.6,349.072v-8.86a.365.365,0,0,1,.363-.363h-1.834a.364.364,0,0,0-.363.363v8.86Z" transform="translate(-289.104 -286.168)" opacity="0.1"/>
    <path id="Path_24401" data-name="Path 24401" d="M321.545,398.665a.545.545,0,0,1-.545-.545v-1.192a.545.545,0,1,1,1.09,0v1.192A.545.545,0,0,1,321.545,398.665Z" transform="translate(-297.669 -338.594)" fill="#775436"/>
    <path id="Path_24402" data-name="Path 24402" d="M321.743,205.672v-5.059a.364.364,0,0,0-.363-.363h-4.253a.364.364,0,0,0-.363.363v5.059Z" transform="translate(-293.74 -156.717)" fill="#a1daf8"/>
    <path id="Path_24403" data-name="Path 24403" d="M318.6,205.672v-5.059a.364.364,0,0,1,.363-.363h-1.834a.364.364,0,0,0-.363.363v5.059Z" transform="translate(-293.741 -156.717)" opacity="0.1"/>
    <g id="Group_55253" data-name="Group 55253" transform="translate(21.788 42.988)">
      <path id="Path_24404" data-name="Path 24404" d="M310.354,198.717V193.84h3.89v4.877h1.09v-5.059a.91.91,0,0,0-.909-.909h-4.253a.91.91,0,0,0-.909.909v5.059Z" transform="translate(-308.573 -192.75)" fill="#009fe3"/>
      <path id="Path_24405" data-name="Path 24405" d="M307.214,275.186a.364.364,0,0,1-.363.363h-6.725a.364.364,0,0,1-.363-.363v-.974a.364.364,0,0,1,.363-.363h6.725a.364.364,0,0,1,.363.363Z" transform="translate(-299.763 -267.954)" fill="#a1daf8"/>
    </g>
    <g id="Group_55254" data-name="Group 55254" transform="translate(21.788 48.883)" opacity="0.1">
      <path id="Path_24406" data-name="Path 24406" d="M301.6,275.186v-.974a.365.365,0,0,1,.363-.363h-1.834a.364.364,0,0,0-.363.363v.974a.364.364,0,0,0,.363.363h1.834A.364.364,0,0,1,301.6,275.186Z" transform="translate(-299.764 -273.848)"/>
    </g>
    <path id="Path_24407" data-name="Path 24407" d="M124,60.25v3.343a.364.364,0,0,0,.363.363h4.07a.364.364,0,0,0,.363-.363V60.25Z" transform="translate(-114.987 -26.892)" fill="#c6a07d"/>
    <path id="Path_24408" data-name="Path 24408" d="M125.817,63.593V60.25H124v3.343a.364.364,0,0,0,.363.363h1.817A.364.364,0,0,1,125.817,63.593Z" transform="translate(-114.987 -26.892)" opacity="0.1"/>
    <path id="Path_24409" data-name="Path 24409" d="M118.541,33.067a.364.364,0,0,1-.363.363h-5.815a.364.364,0,0,1-.363-.363V31.613a.364.364,0,0,1,.363-.363h5.815a.364.364,0,0,1,.363.363Z" transform="translate(-103.859)" fill="#775436"/>
    <g id="Group_55255" data-name="Group 55255" transform="translate(8.141 31.25)" opacity="0.1">
      <path id="Path_24410" data-name="Path 24410" d="M113.817,33.067V31.613a.364.364,0,0,1,.363-.363h-1.817a.364.364,0,0,0-.363.363v1.454a.364.364,0,0,0,.363.363h1.817A.364.364,0,0,1,113.817,33.067Z" transform="translate(-112 -31.25)"/>
    </g>
    <rect id="Rectangle_18829" data-name="Rectangle 18829" width="4.86" height="3.125" transform="translate(5.726 41.644)" fill="#a1daf8"/>
    <g id="Group_55256" data-name="Group 55256" transform="translate(5.726 41.644)" opacity="0.1">
      <rect id="Rectangle_18830" data-name="Rectangle 18830" width="1.833" height="3.125"/>
    </g>
    <path id="Path_24411" data-name="Path 24411" d="M147.7,174.25h-2.061v3.125H147.7a.364.364,0,0,0,.363-.363v-2.4A.364.364,0,0,0,147.7,174.25Z" transform="translate(-135.057 -132.606)" fill="#a2f9f9"/>
    <path id="Path_24412" data-name="Path 24412" d="M85.7,166.75H78.778v1.09h4.315v2.035H78.778v1.09H85.7a.91.91,0,0,0,.909-.909v-2.4A.91.91,0,0,0,85.7,166.75Zm-.182,3.125H84.183V167.84h1.334Z" transform="translate(-73.052 -125.651)" fill="#775436"/>
    <path id="Path_24413" data-name="Path 24413" d="M416.575,383.845,414.932,381h-3.518l-1.642,2.845c-.1.173-.018.315.182.315h6.44C416.593,384.159,416.675,384.018,416.575,383.845Z" transform="translate(-379.949 -324.329)" fill="#368c0e"/>
    <g id="Group_55257" data-name="Group 55257" transform="translate(29.78 56.671)" opacity="0.1">
      <path id="Path_24414" data-name="Path 24414" d="M411.609,383.845,413.252,381h-1.837l-1.642,2.845c-.1.173-.018.315.182.315h1.837C411.591,384.159,411.51,384.018,411.609,383.845Z" transform="translate(-409.73 -381)"/>
    </g>
    <path id="Path_24415" data-name="Path 24415" d="M426.572,345.737l-1.451-2.513h-2.2l-1.451,2.513c-.1.173-.018.315.182.315h4.739C426.59,346.052,426.672,345.91,426.572,345.737Z" transform="translate(-390.797 -289.299)" fill="#5dc647"/>
    <path id="Path_24416" data-name="Path 24416" d="M423.307,345.737l1.451-2.513h-1.837l-1.451,2.513c-.1.173-.018.315.182.315h1.837C423.288,346.052,423.207,345.91,423.307,345.737Z" transform="translate(-390.797 -289.299)" opacity="0.1"/>
    <path id="Path_24417" data-name="Path 24417" d="M431.674,302.924c-.2,0-.282-.142-.182-.315l1.641-2.842a.192.192,0,0,1,.363,0l1.641,2.842c.1.173.018.315-.182.315Z" transform="translate(-400.09 -248.88)" fill="#368c0e"/>
    <g id="Group_55258" data-name="Group 55258" transform="translate(31.359 50.757)" opacity="0.1">
      <path id="Path_24418" data-name="Path 24418" d="M433.329,302.61l.9-1.566-.737-1.276a.192.192,0,0,0-.363,0l-1.641,2.842c-.1.173-.018.315.182.315h1.837C433.31,302.924,433.229,302.783,433.329,302.61Z" transform="translate(-431.449 -299.637)"/>
    </g>
    <path id="Path_24419" data-name="Path 24419" d="M36.669,466.84H.545a.545.545,0,1,1,0-1.09H36.669a.545.545,0,1,1,0,1.09Z" transform="translate(0 -402.919)" fill="#d19546"/>
  </g>
</svg>
